<svg width="24" height="15" viewBox="0 0 24 15" fill="none" xmlns="http://www.w3.org/2000/svg">
<path d="M11.9971 15C7.90958 15 4.02083 12.8798 0.43958 8.69775C-0.15442 8.004 -0.15442 6.99675 0.43958 6.303C4.02083 2.121 7.90958 0 11.9971 0C16.0846 0 19.9733 2.121 23.5546 6.303C24.1486 6.99675 24.1486 8.004 23.5538 8.69775C19.9733 12.8798 16.0846 15 11.9971 15ZM1.57883 7.27875C1.47008 7.40475 1.47008 7.59525 1.57883 7.722C4.86233 11.556 8.36783 13.5 11.9971 13.5C15.6271 13.5 19.1318 11.556 22.4153 7.72125C22.5241 7.59525 22.5241 7.40475 22.4161 7.27875C19.1318 3.444 15.6271 1.5 11.9971 1.5C8.36783 1.5 4.86233 3.444 1.57883 7.27875Z" fill="#1D1D1D"/>
<path d="M11.9971 12C9.51533 12 7.49708 9.98175 7.49708 7.5C7.49708 5.01825 9.51533 3 11.9971 3C14.4788 3 16.4971 5.01825 16.4971 7.5C16.4971 9.98175 14.4788 12 11.9971 12ZM11.9971 4.5C10.3426 4.5 8.99708 5.8455 8.99708 7.5C8.99708 9.1545 10.3426 10.5 11.9971 10.5C13.6516 10.5 14.9971 9.1545 14.9971 7.5C14.9971 5.8455 13.6516 4.5 11.9971 4.5Z" fill="#1D1D1D"/>
</svg>
